<?xml version="1.0" encoding="utf-8"?><svg xmlns="http://www.w3.org/2000/svg" xmlns:xlink="http://www.w3.org/1999/xlink"><symbol viewBox="0 0 13 19" id="header_location" xmlns="http://www.w3.org/2000/svg"><path d="M.056 7.493a6.804 6.804 0 01-.055-.83c0-3.684 2.91-6.67 6.5-6.67s6.501 2.986 6.501 6.67c0 .277-.021.55-.054.819-.542 5.212-5.932 11.225-5.932 11.225a1.035 1.035 0 01-.28.233l-.006.002-.182.058-.182-.058-.005-.002a1.029 1.029 0 01-.28-.233S.611 12.702.055 7.493zm2.264-.83c0 2.366 1.877 4.29 4.182 4.29 2.306 0 4.18-1.924 4.18-4.29 0-2.365-1.874-4.29-4.18-4.29-2.305 0-4.182 1.925-4.182 4.29z"/><path d="M.056 7.493a6.804 6.804 0 01-.055-.83c0-3.684 2.91-6.67 6.5-6.67s6.501 2.986 6.501 6.67c0 .277-.021.55-.054.819-.542 5.212-5.932 11.225-5.932 11.225a1.035 1.035 0 01-.28.233l-.006.002-.182.058-.182-.058-.005-.002a1.029 1.029 0 01-.28-.233S.611 12.702.055 7.493zm2.264-.83c0 2.366 1.877 4.29 4.182 4.29 2.306 0 4.18-1.924 4.18-4.29 0-2.365-1.874-4.29-4.18-4.29-2.305 0-4.182 1.925-4.182 4.29z"/></symbol><symbol viewBox="0 0 23 18" id="header_mail" xmlns="http://www.w3.org/2000/svg"><path d="M22.779 2.632v11.936c0 1.412-1.187 2.56-2.646 2.56h-17c-1.46 0-2.646-1.148-2.646-2.56V2.632c0-1.411 1.187-2.56 2.646-2.56h17c1.459 0 2.646 1.149 2.646 2.56zm-2.244 11.936V4.21l-7.689 6.54a.873.873 0 01-.564.207h-1.299a.872.872 0 01-.564-.208L2.73 4.21v10.358c0 .16.188.3.403.3h17c.214 0 .402-.14.402-.3zM19.111 2.332H4.155l7.478 6.38z"/><path d="M22.779 2.632v11.936c0 1.412-1.187 2.56-2.646 2.56h-17c-1.46 0-2.646-1.148-2.646-2.56V2.632c0-1.411 1.187-2.56 2.646-2.56h17c1.459 0 2.646 1.149 2.646 2.56zm-2.244 11.936V4.21l-7.689 6.54a.873.873 0 01-.564.207h-1.299a.872.872 0 01-.564-.208L2.73 4.21v10.358c0 .16.188.3.403.3h17c.214 0 .402-.14.402-.3zM19.111 2.332H4.155l7.478 6.38z"/></symbol><symbol viewBox="0 0 19 19" id="header_phone" xmlns="http://www.w3.org/2000/svg"><path d="M19.001 14.987a.919.919 0 01-.282.804l-2.677 2.654a1.51 1.51 0 01-.473.342 1.953 1.953 0 01-.574.18c-.013 0-.054.004-.12.01a2.67 2.67 0 01-.262.01c-.255 0-.668-.043-1.239-.13-.57-.088-1.268-.301-2.093-.643-.826-.342-1.762-.855-2.809-1.538-1.046-.684-2.16-1.622-3.342-2.815-.939-.925-1.717-1.81-2.335-2.654a18.898 18.898 0 01-1.49-2.342 12.627 12.627 0 01-.845-1.95 10.353 10.353 0 01-.383-1.508c-.067-.423-.094-.754-.08-.995.013-.242.02-.376.02-.403.027-.187.087-.378.181-.573a1.52 1.52 0 01.343-.473L3.218.29a.887.887 0 01.644-.281c.175 0 .33.05.463.15.134.1.249.224.342.372l2.155 4.081c.12.215.154.45.1.704a1.255 1.255 0 01-.342.644l-.986.985a.337.337 0 00-.071.13.496.496 0 00-.03.151c.053.282.174.603.362.965.161.322.41.714.745 1.177.336.462.812.995 1.43 1.598.604.616 1.14 1.095 1.61 1.437.47.342.862.594 1.178.754.315.16.557.258.725.292l.251.05c.027 0 .07-.01.131-.03a.32.32 0 00.13-.071l1.148-1.166c.242-.214.524-.322.846-.322.228 0 .41.04.543.121h.02l3.886 2.292c.282.175.45.396.503.664z"/><path d="M19.001 14.987a.919.919 0 01-.282.804l-2.677 2.654a1.51 1.51 0 01-.473.342 1.953 1.953 0 01-.574.18c-.013 0-.054.004-.12.01a2.67 2.67 0 01-.262.01c-.255 0-.668-.043-1.239-.13-.57-.088-1.268-.301-2.093-.643-.826-.342-1.762-.855-2.809-1.538-1.046-.684-2.16-1.622-3.342-2.815-.939-.925-1.717-1.81-2.335-2.654a18.898 18.898 0 01-1.49-2.342 12.627 12.627 0 01-.845-1.95 10.353 10.353 0 01-.383-1.508c-.067-.423-.094-.754-.08-.995.013-.242.02-.376.02-.403.027-.187.087-.378.181-.573a1.52 1.52 0 01.343-.473L3.218.29a.887.887 0 01.644-.281c.175 0 .33.05.463.15.134.1.249.224.342.372l2.155 4.081c.12.215.154.45.1.704a1.255 1.255 0 01-.342.644l-.986.985a.337.337 0 00-.071.13.496.496 0 00-.03.151c.053.282.174.603.362.965.161.322.41.714.745 1.177.336.462.812.995 1.43 1.598.604.616 1.14 1.095 1.61 1.437.47.342.862.594 1.178.754.315.16.557.258.725.292l.251.05c.027 0 .07-.01.131-.03a.32.32 0 00.13-.071l1.148-1.166c.242-.214.524-.322.846-.322.228 0 .41.04.543.121h.02l3.886 2.292c.282.175.45.396.503.664z"/></symbol></svg>